<?xml version="1.0"?>
<svg xmlns:rdf="http://www.w3.org/1999/02/22-rdf-syntax-ns#" xmlns="http://www.w3.org/2000/svg" xmlns:cc="http://creativecommons.org/ns#" xmlns:xlink="http://www.w3.org/1999/xlink" xmlns:dc="http://purl.org/dc/elements/1.1/" xmlns:svg="http://www.w3.org/2000/svg" id="svg9177" viewBox="0 0 154.11 191.8" version="1.0">
  <defs id="defs3">
    <radialGradient id="radialGradient2954" fx="424.24" fy="245.66" gradientUnits="userSpaceOnUse" cy="245.05" cx="421.23" gradientTransform="matrix(.77263 0 0 1.2943 20.006 222.67)" r="77.253">
      <stop id="stop2958" stop-color="#ffde39" stop-opacity=".62577" offset="0"/>
      <stop id="stop2960" stop-color="#ffde39" offset="1"/>
    </radialGradient>
    <linearGradient id="linearGradient2946" y2="210.79" gradientUnits="userSpaceOnUse" y1="239.36" gradientTransform="matrix(.64408 0 0 1.5526 20.006 222.67)" x2="393.49" x1="401.96">
      <stop id="stop2942" offset="0"/>
      <stop id="stop2944" stop-opacity="0" offset="1"/>
    </linearGradient>
    <linearGradient id="linearGradient6020" y2="154.11" gradientUnits="userSpaceOnUse" y1="194.68" gradientTransform="matrix(.62748 0 0 1.5937 108.36 278.73)" x2="97.103" x1="175.17">
      <stop id="stop6016" stop-color="#e9d600" offset="0"/>
      <stop id="stop6018" stop-color="#e9d600" stop-opacity="0" offset="1"/>
    </linearGradient>
    <linearGradient id="linearGradient8330" y2="174.82" spreadMethod="reflect" gradientUnits="userSpaceOnUse" y1="153.11" gradientTransform="scale(.52394 1.9086)" x2="255.01" x1="252.79">
      <stop id="stop8326" stop-color="#626060" offset="0"/>
      <stop id="stop8328" stop-color="#626060" stop-opacity="0" offset="1"/>
    </linearGradient>
    <linearGradient id="linearGradient8415" y2="185.97" spreadMethod="reflect" gradientUnits="userSpaceOnUse" y1="209.4" gradientTransform="matrix(1.032 0 0 .96898 110.41 280.88)" x2="180.35" x1="197.19">
      <stop id="stop8411" stop-color="#f8f8f8" offset="0"/>
      <stop id="stop8413" stop-color="#f8f8f8" stop-opacity="0" offset="1"/>
    </linearGradient>
  </defs>
  <g id="layer1" transform="translate(-208.66 -442.18)">
    <path id="path1408" d="m330.42 532.89c-18.18-1.01-27.78 28.79-30.3 41.16-2.03 9.95-4.55 40.41 0 49.24 4.54 8.84 7.51 9.31 16.92 10.36 6.82 0.76 16.41-1.01 23.23-5.56 6.47-4.31 12.38-9.59 15.15-18.69 2.76-9.02 3.03-36.87 0.76-45.96s-3.53-13.17-8.33-18.94c-5.05-6.06-7.58-10.1-17.43-11.61z" fill-rule="evenodd" stroke="#c7b559" stroke-width=".25pt" fill="url(#radialGradient2954)"/>
    <path id="path1420" d="m219.47 517.86c-1.82-24.64 1.83-30.57 9.12-42.88 7.3-12.32 22.82-21.9 32.4-24.18s15.51-3.2 26.91 4.1c11.41 7.3 14.6 9.58 26.46 23.73 11.86 14.14 19.16 31.93 20.99 41.51 1.82 9.58 0.45 16.42 0.45 20.53v6.39l20.53-11.86s2.28-20.08-0.45-31.94c-2.74-11.86-14.6-31.48-26.46-43.79-11.87-12.32-17.34-13.23-25.55-15.97s-26.46 1.37-30.11 3.19c-3.65 1.83-15.97 12.78-21.9 21.9s-9.58 41.97-9.58 41.97l-22.81 7.3z" fill-rule="evenodd" stroke="#575757" stroke-width=".81" fill="#040404"/>
    <path id="path2180" d="m322.82 531.1c-18.19-1.01-27.78 28.79-30.31 41.17-2.03 9.95-4.54 40.4 0 49.24 4.55 8.84 7.66 10.67 16.35 10.64-5.29-1.47-5.3-3.97-7.92-7.58-3.03-6.33-2.05-4.96-3.49-15.13-1.09-11.45 2.55-40.09 6.21-49.17 4.92-15.02 16.25-29.31 28.05-27.18-1.37-0.37 0.88-0.76-8.89-1.99z" fill-rule="evenodd" stroke="#000" stroke-width=".25pt" fill="url(#linearGradient2946)"/>
    <path id="path5254" d="m251.97 516.32c-9.12 0.18-9.85 0.36-13.68 2.19-4.2 2.37-7.67 2.73-14.42 14.41-6.02 10.95-6.93 14.05-7.66 25.18-0.73 11.14-2.38 15.88-0.55 24.64 1.82 8.76 4.38 14.6 4.38 14.6s4.83 6.11 7.3 8.57c2.55 2.56 2 2.01 8.39 4.57 6.39 2.55-0.73-3.11-0.73-3.11l16.97-91.05z" fill="url(#linearGradient6020)" fill-rule="evenodd"/>
    <path id="path4494" d="m266.26 519.57c-5.08-1.57-11.04-3.15-16.36-2.66-7.18 2.74-5.6 0.97-10.44 6.54s-5.18 8.96-8.09 17.2c-2.9 8.23-3.87 9.93-4.36 22.04-0.48 12.11-0.24 17.2 0.49 25.19 0.72 8 2.66 13.08 5.81 16.96 3.15 3.87 5.82 7.51 10.42 8.48s6.05 1.93 9.93 0.97c3.88-0.97 6.54-1.22 9.93-5.09 3.39-3.88 4.12-3.15 8.24-10.9s4.36-8.48 5.57-15.75c1.21-7.26 2.18-10.9 1.94-27.85-0.25-16.96 0-12.12-1.46-20.35-3.05-7.84-4.37-9.39-5.57-10.42-3-2.69-3.77-3.31-6.05-4.36z" stroke="#000" stroke-width=".25pt" fill-rule="evenodd"/>
    <path id="path6780" d="m148 285.86a7 25.5 0 1 1 -14 0 7 25.5 0 1 1 14 0z" fill="url(#linearGradient8330)" transform="translate(112.36 280.73)" fill-rule="evenodd"/>
    <path id="path8322" d="m252.96 520.11c-0.56 0.6-9 9.23-9.4 10.12-0.32 0.56-4.64 9.61-4.68 10.24 0.05 0.43-0.22-5.31-0.24-5.71-0.64 1.67 2.41-5.39 2.76-5.95 0.42-0.9 3.32-2.93 4.04-3.69 0.53-0.6 4-3.9 4.66-4.36l2.86-0.65z" fill="#838383"/>
    <path id="path8336" d="m213.51 545.19c-0.02 1.7 0.62 3.32 0.95 4.97 0.31 2.33 0.5 5.6 1.37 7.79 1.1 2.26 2.53 4.36 3.43 6.72 0.46 1.4 0.51 2.86 0.51 4.32-0.01 1.31 0.32 1.56 0.31 2.87 0.08 1.37-0.13 2.73-0.23 4.09-0.07 1.08 0.02 2.13 0.19 3.19-0.07 1.14 0.51 1.87 1.25 2.64 0.75 0.94 1.68 1.39 2.8 1.7 4.36-1.27-3.36 3.13-1.19 0.97 1.02-0.84 1.22-1.95 1.34-3.2 0.08-1.54-0.34-2.9-0.99-4.26-0.59-0.89-1.1-1.84-1.68-2.74-0.48-0.79-1.06-1.52-1.59-2.28-0.7-0.61-1.07-1.44-1.5-2.25-0.39-0.91-0.83-0.83-1.21-1.74-0.21-0.87-0.69-1.42-1.27-2.05-0.4-0.83-0.7-1.69-0.98-2.57-0.03-0.44-0.02-1.72-0.23-2.04l1.95-1.57c0.28 0.38 0.9 1.34 0.99 1.84 0.25 0.82 1.68 1.31 2.04 2.09 0.63 0.64 1.09 1.3 1.34 2.19 0.38 0.89 0.82 0.79 1.17 1.69 0.43 0.79 0.8 1.57 1.48 2.18 0.53 0.75 1.09 1.5 1.58 2.28 0.6 0.92 1.1 1.9 1.69 2.83 0.68 1.43 1.15 2.83 1.11 4.44-0.09 1.27-0.2 2.58-1.21 3.47-1.55 1.87-3.95 3.52-6.43 3.22-1.15-0.38-2.13-0.96-2.93-1.89-0.77-0.86-1.47-1.69-1.41-2.92-0.16-1.08-0.29-2.15-0.21-3.25 0.06-1.36 0.35-2.71 0.25-4.08-0.01-1.31 0-2.61 0-3.92 0-1.42-0.31-1.79-0.74-3.16-0.84-2.37-1.97-5.51-3.05-7.78-0.87-2.21-1.54-4.42-1.74-6.8-0.31-1.68-0.97-3.28-1.1-4.98l3.94-2.01z"/>
    <path id="path8338" d="m211.79 544.6s0.05 1.66 0.15 1.66v-1.66h-0.15z" fill="#6c6969" fill-rule="evenodd"/>
    <path id="path8340" d="m218.82 517.42l-10.16 16.21 1.41 0.88 10.15-16.22-1.4-0.87z" fill="#6c6969" fill-rule="evenodd"/>
    <path id="path8342" d="m210.29 533.48l-1.63 0.28 2 11.97 1.66-0.28-2.03-11.97z" fill="#6c6969" fill-rule="evenodd"/>
    <path id="path8344" d="m241.88 509.42l-0.19 1.62 9.25 1.09 0.19-1.65-9.25-1.06z" fill="#6c6969" fill-rule="evenodd"/>
    <path id="path8346" d="m251.29 510.51l-0.47 1.59c0.44 0.14 0.97 0.64 2.03 0.91l0.4-1.59c-0.61-0.16-1.04-0.63-1.96-0.91z" fill="#6c6969" fill-rule="evenodd"/>
    <path id="path8348" d="m252.25 511.23l0.47 1.59c-0.11 0.03 0.15 0.04 0.53 0.25s0.82 0.54 1.41 0.69c0.36 0.09 0.57 0.21 0.88 0.37 0.3 0.17 0.7 0.39 1.28 0.54 0.35 0.08 1.31 0.57 1.84 0.84 0.12 0.06 0.17 0.09 0.25 0.12 0.03 0.08 0.05 0.13 0.09 0.22l1.5-0.75c-0.06-0.12-0.09-0.14-0.09-0.15s0.07-0.11-0.16-0.41c-0.22-0.3-0.38-0.31-0.46-0.34-0.09-0.04-0.18-0.09-0.38-0.19-0.44-0.22-1.35-0.76-2.19-0.97-0.39-0.1-0.6-0.21-0.9-0.37-0.31-0.17-0.69-0.4-1.25-0.54-0.13-0.03-0.58-0.25-1.03-0.5-0.46-0.24-1.01-0.62-1.79-0.4z" fill="#6c6969" fill-rule="evenodd"/>
    <path id="path8350" d="m259.75 514.57l-0.71 1.47c-0.3-0.15-0.25-0.23-0.22-0.16 0.02 0.08 0.04 0.24 0.06 0.44 0.04 0.41 0.06 0.94 0.06 1.35h1.63c0-0.42 0.02-0.98-0.03-1.5-0.03-0.27-0.08-0.53-0.16-0.79-0.08-0.25-0.16-0.57-0.63-0.81z" fill="#6c6969" fill-rule="evenodd"/>
    <path id="path8370" d="m313.37 568.97c-0.5-0.13-1.23 2.18-1.56 3.83-0.32 2.34-0.51 5.61-1.38 7.8-1.1 2.26-5.09 5.85-5.08 7.15-0.08 1.38 0.14 2.73 0.23 4.1 0.08 1.07-0.01 2.13-0.18 3.19 0.06 1.14-0.52 1.86-1.26 2.63-0.75 0.94-1.68 0.15-2.8 0.46-4.36-1.27 3.37 4.38 1.19 2.22-1.01-0.84-1.01-3.41-1.13-4.66-0.08-1.54 0.13-1.44 0.78-2.8 0.6-0.9 1.11-1.84 1.68-2.74 0.48-0.8 1.06-1.52 1.59-2.29 0.71-0.61 5.81-3.58 6.02-3.9l-1.95-1.57c-0.28 0.39-0.89 1.35-0.98 1.84-0.26 0.83-3.8 1.14-6.69 2.03-0.7 0.6-2.85 3.56-3.45 4.48-0.68 1.43-1.15 2.83-1.1 4.45 0.08 1.26 0.19 2.57 1.2 3.46 1.55 1.88 4.31 2.61 6.78 2.31 1.16-0.38 1.78-0.05 2.58-0.98 0.77-0.85 1.48-1.69 1.42-2.92 0.16-1.08 0.28-2.14 0.2-3.24-0.06-1.37-0.35-2.71-0.24-4.09 0-1.3 3.53-5.84 4.61-8.1 0.88-2.22 1.54-4.43 1.75-6.81 0.3-1.68 1.13-4.65 1.1-4.98l-3.33-0.87z"/>
    <path id="path8372" d="m356.16 543.92c-1.25 8.13-0.42 6.27-2.11 11.57l2.73 11.58c1.43-4.49 3.8-13.01 5.22-22.25l-5.84-0.9z" fill-rule="evenodd"/>
    <path id="path8381" d="m356.64 533.68c0.84 0.01 1.99 0.75 2.89 1.11 0.99 0.4 1.31 0.61 2.45 0.89" stroke="#000" stroke-width="1pt" fill="none"/>
    <path id="path8383" d="m361.76 535.46c1.48 0.6-1.78 2.86-1.78 4.45v3.34c0 0.12 0.17 0.89 0.22 1.12" stroke="#000" stroke-width="1pt" fill="none"/>
    <path id="path8385" d="m336.04 546.06c0 1.51-6.32 4.45-12.96 9.47-4.2 5.34-5.16 6.96-8.26 14.26" stroke="#000" stroke-width="1pt" fill="none"/>
    <path id="path8387" d="m257.74 599.59c0.56-0.6 3.01-4.39 3.42-5.28 0.32-0.56 2.33-4.08 2.37-4.71-0.05-0.43 2.06-0.22 2.09 0.18-0.05 0.63-2.42 5.39-2.76 5.95-0.43 0.9-1.71 2.01-2.43 2.77-0.53 0.6-0.77 0.67-1.43 1.14l-1.26-0.05z" fill="#838383"/>
    <path id="path8391" d="m312.98 541.57c-0.56 0.6-3.44 4.04-3.84 4.93-0.33 0.56-2.12 3.65-2.16 4.27 0.05 0.43-5.34-1.27-5.44-1.6 0.34-1.42 2.63-5.67 2.98-6.23 0.42-0.9 2.27-2.73 2.99-3.48 0.54-0.61 1.77 0.47 2.86 0.85l2.61 1.26z" fill="#e8e8e8"/>
    <path id="path8393" d="m316.47 451.18c2.26 2.56 11.19 9.12 14.04 11.51 2.88 2.7 13.48 16.86 14.98 20.88 0.06 0.3 8.61 11.33 5.31 9.55l-15.97 11.78c-1.17-1.7-5.21-13.51-8.06-16.64-1.8-3.21-7.89-12.59-10.59-15.12-3.31-2.77-11.69-10.2-13.98-13.75l14.27-8.21z" fill="url(#linearGradient8415)"/>
    <path id="path8417" d="m336.41 546.25c15.92-8.94 7.7-24.32 12.53-27.43 4.92-3.17 1.48 7.11 1.86 14.25 0.37 7.14 3.72 2.76 5.61 1.68" stroke="#ccc9c9" stroke-width="1.81" fill="none"/>
  </g>
  <metadata>
    <rdf:RDF>
      <cc:Work>
        <dc:format>image/svg+xml</dc:format>
        <dc:type rdf:resource="http://purl.org/dc/dcmitype/StillImage"/>
        <cc:license rdf:resource="http://creativecommons.org/licenses/publicdomain/"/>
        <dc:publisher>
          <cc:Agent rdf:about="http://openclipart.org/">
            <dc:title>Openclipart</dc:title>
          </cc:Agent>
        </dc:publisher>
        <dc:title>headphones</dc:title>
        <dc:date>2008-02-05T05:22:29</dc:date>
        <dc:description>clip art, clipart, equipment, equipment, headphones, headphones, image, media, music, music, photorealistic, photorealistic, png, public domain, sound, sound, svg, </dc:description>
        <dc:source>http://openclipart.org/detail/12803/headphones-by-anonymous-12803</dc:source>
        <dc:creator>
          <cc:Agent>
            <dc:title>Anonymous</dc:title>
          </cc:Agent>
        </dc:creator>
        <dc:subject>
          <rdf:Bag>
            <rdf:li>clip art</rdf:li>
            <rdf:li>clipart</rdf:li>
            <rdf:li>equipment</rdf:li>
            <rdf:li>headphones</rdf:li>
            <rdf:li>image</rdf:li>
            <rdf:li>media</rdf:li>
            <rdf:li>music</rdf:li>
            <rdf:li>photorealistic</rdf:li>
            <rdf:li>png</rdf:li>
            <rdf:li>public domain</rdf:li>
            <rdf:li>sound</rdf:li>
            <rdf:li>svg</rdf:li>
          </rdf:Bag>
        </dc:subject>
      </cc:Work>
      <cc:License rdf:about="http://creativecommons.org/licenses/publicdomain/">
        <cc:permits rdf:resource="http://creativecommons.org/ns#Reproduction"/>
        <cc:permits rdf:resource="http://creativecommons.org/ns#Distribution"/>
        <cc:permits rdf:resource="http://creativecommons.org/ns#DerivativeWorks"/>
      </cc:License>
    </rdf:RDF>
  </metadata>
</svg>
